HIERARCHY
ROOT Hips
{
	OFFSET 0.000000 0.000000 0.000000 
	CHANNELS 6 Xposition Yposition Zposition Xrotation Yrotation Zrotation
	JOINT Spine
	{
		OFFSET 0.000000 1.722820 2.584230 
		CHANNELS 3 Xrotation Yrotation Zrotation
		JOINT Spine1
		{
			OFFSET 0.000000 0.598330 3.393290 
			CHANNELS 3 Xrotation Yrotation Zrotation
			JOINT Spine2
			{
				OFFSET 0.000000 0.300310 3.432520 
				CHANNELS 3 Xrotation Yrotation Zrotation
				JOINT Spine3
				{
					OFFSET 0.000000 0.000000 3.445640 
					CHANNELS 3 Xrotation Yrotation Zrotation
					JOINT Neck
					{
						OFFSET 0.000000 -1.292100 9.044790 
						CHANNELS 3 Xrotation Yrotation Zrotation
						JOINT Head
						{
							OFFSET 0.000000 -0.822700 4.665770 
							CHANNELS 3 Xrotation Yrotation Zrotation
							End Site
							{
								OFFSET 0.000000 0.000010 5.577620 
							}
						}
					}
					JOINT RightShoulder
					{
						OFFSET -1.175120 -1.958530 6.345670 
						CHANNELS 3 Xrotation Yrotation Zrotation
						JOINT RightArm
						{
							OFFSET -5.836450 0.000000 0.000000 
							CHANNELS 3 Xrotation Yrotation Zrotation
							JOINT RightForeArm
							{
								OFFSET -10.886420 0.000000 0.000000 
								CHANNELS 3 Xrotation Yrotation Zrotation
								JOINT RightHand
								{
									OFFSET -10.194950 0.000000 0.000000 
									CHANNELS 3 Xrotation Yrotation Zrotation
									JOINT RightHandEnd
									{
										OFFSET -2.735920 0.000000 0.000000 
										CHANNELS 3 Xrotation Yrotation Zrotation
										End Site
										{
											OFFSET -2.735920 0.000000 0.000000 
										}
									}
									JOINT RightHandThumb1
									{
										OFFSET -1.094370 -1.823950 -0.729580 
										CHANNELS 3 Yrotation Xrotation Zrotation
										End Site
										{
											OFFSET -2.642700 -0.708110 0.000000 
										}
									}
								}
							}
						}
					}
					JOINT LeftShoulder
					{
						OFFSET 1.175120 -1.958530 6.345670 
						CHANNELS 3 Xrotation Yrotation Zrotation
						JOINT LeftArm
						{
							OFFSET 5.836450 0.000000 0.000000 
							CHANNELS 3 Xrotation Yrotation Zrotation
							JOINT LeftForeArm
							{
								OFFSET 10.886420 0.000000 0.000000 
								CHANNELS 3 Xrotation Yrotation Zrotation
								JOINT LeftHand
								{
									OFFSET 10.194950 0.000000 0.000000 
									CHANNELS 3 Xrotation Yrotation Zrotation
									JOINT LeftHandEnd
									{
										OFFSET 2.735920 0.000000 0.000000 
										CHANNELS 3 Xrotation Yrotation Zrotation
										End Site
										{
											OFFSET 2.735920 0.000000 0.000000 
										}
									}
									JOINT LeftHandThumb1
									{
										OFFSET 1.094370 -1.823950 -0.729580 
										CHANNELS 3 Yrotation Xrotation Zrotation
										End Site
										{
											OFFSET 2.642700 -0.708110 0.000000 
										}
									}
								}
							}
						}
					}
				}
			}
		}
	}
	JOINT RightUpLeg
	{
		OFFSET -3.486200 0.000000 -1.018440 
		CHANNELS 3 Xrotation Yrotation Zrotation
		JOINT RightLeg
		{
			OFFSET 0.000010 0.000000 -16.688210 
			CHANNELS 3 Xrotation Yrotation Zrotation
			JOINT RightFoot
			{
				OFFSET 0.000010 0.000000 -16.775360 
				CHANNELS 3 Xrotation Yrotation Zrotation
				JOINT RightToeBase
				{
					OFFSET 0.000000 -4.945160 -1.799890 
					CHANNELS 3 Xrotation Yrotation Zrotation
					End Site
					{
						OFFSET 0.000000 -2.820300 -0.000000 
					}
				}
			}
		}
	}
	JOINT LeftUpLeg
	{
		OFFSET 3.486200 0.000000 -1.018440 
		CHANNELS 3 Xrotation Yrotation Zrotation
		JOINT LeftLeg
		{
			OFFSET 0.000010 0.000000 -16.688210 
			CHANNELS 3 Xrotation Yrotation Zrotation
			JOINT LeftFoot
			{
				OFFSET 0.000010 0.000000 -16.775360 
				CHANNELS 3 Xrotation Yrotation Zrotation
				JOINT LeftToeBase
				{
					OFFSET 0.000000 -4.945160 -1.799890 
					CHANNELS 3 Xrotation Yrotation Zrotation
					End Site
					{
						OFFSET 0.000000 -2.820300 -0.000000 
					}
				}
			}
		}
	}
}
MOTION
Frames: 6
Frame Time: 0.008333
-4.813900 36.715599 -5.634700 -86.056503 3.890100 7.081200 1.624500 -2.419100 -0.401200 1.668400 -0.158100 -0.007600 4.802700 -2.035600 -0.233300 -0.719000 -0.273300 0.155800 -6.706000 0.766500 -1.401900 -12.720200 1.554300 -4.422200 3.654600 -6.146700 2.999300 20.203199 -50.356098 24.891100 0.000000 0.000000 25.018101 -2.712000 -7.828400 -5.605600 0.000000 0.000000 -0.000000 -0.000000 -0.000000 -0.000000 -0.075000 9.361800 -5.579300 -5.455400 59.402100 8.048600 -0.000000 -0.000000 -31.106800 -4.379300 6.571500 14.031400 0.000000 0.000000 0.000000 -0.000000 -0.000000 0.000000 -8.340800 1.610900 -19.144600 15.298200 0.000000 0.000000 -10.461100 -5.803300 -13.595800 1.447800 0.000000 0.000000 -7.679300 -11.810500 2.522900 16.768101 0.000000 0.000000 -16.160299 11.922500 0.534500 -2.995200 0.000000 -0.000000 
-4.695100 36.711800 -5.611800 -86.186897 3.748600 6.965200 1.596600 -2.251900 -0.389000 1.636100 -0.097500 0.002800 4.780100 -1.935200 -0.148700 -0.712200 -0.288400 0.159800 -6.666700 0.566700 -1.455400 -12.657200 1.609600 -4.455700 3.674800 -6.279600 2.950700 20.264500 -50.400501 24.841600 0.000000 0.000000 24.839300 -2.765300 -7.763400 -5.622400 -0.000000 0.000000 -0.000000 0.000000 0.000000 -0.000000 -0.061600 9.408300 -5.431500 -4.534600 59.419102 7.296800 -0.000000 -0.000000 -31.323900 -4.296600 6.621900 13.959200 -0.000000 0.000000 -0.000000 0.000000 0.000000 -0.000000 -8.238300 1.939700 -18.960899 15.495400 0.000000 0.000000 -10.501700 -5.970500 -13.637600 1.398300 0.000000 0.000000 -7.479500 -11.474500 2.497100 16.874701 0.000000 0.000000 -16.284500 11.632000 0.711300 -3.010200 0.000000 -0.000000 
-4.573200 36.707901 -5.588900 -86.311203 3.598800 6.831200 1.565100 -2.083700 -0.375700 1.604600 -0.050700 0.011500 4.756700 -1.823600 -0.050900 -0.707100 -0.292700 0.160100 -6.626900 0.372300 -1.480600 -12.587900 1.668100 -4.487600 3.695600 -6.407300 2.915000 20.384800 -50.440899 24.839500 0.000000 0.000000 24.670401 -2.846300 -7.684400 -5.648000 0.000000 -0.000000 -0.000000 -0.000000 0.000000 -0.000000 -0.038200 9.450600 -5.293300 -3.646300 59.437099 6.557700 -0.000000 -0.000000 -31.521200 -4.220100 6.734500 13.750300 -0.000000 0.000000 -0.000000 0.000000 0.000000 0.000000 -8.151200 2.286600 -18.783199 15.707500 0.000000 0.000000 -10.538900 -6.139600 -13.653700 1.335900 0.000000 0.000000 -7.279500 -11.125600 2.487700 16.980200 0.000000 0.000000 -16.404900 11.334900 0.893300 -3.041000 0.000000 -0.000000 
-4.448300 36.703701 -5.565800 -86.429199 3.441100 6.684300 1.529700 -1.914300 -0.359800 1.575700 -0.017500 0.018200 4.730600 -1.706200 0.049400 -0.704200 -0.284900 0.156200 -6.578200 0.191800 -1.474100 -12.500200 1.715200 -4.498600 3.717000 -6.523000 2.896300 20.544100 -50.494999 24.867500 0.000000 0.000000 24.519199 -2.922500 -7.598400 -5.686900 0.000000 -0.000000 -0.000000 -0.000000 0.000000 -0.000000 0.005400 9.507700 -5.178000 -2.702700 59.426800 5.778600 -0.000000 -0.000000 -31.736300 -4.198600 6.858800 13.406000 0.000000 0.000000 0.000000 0.000000 0.000000 0.000000 -8.080000 2.652300 -18.615499 15.934800 0.000000 0.000000 -10.573100 -6.311300 -13.647500 1.259200 0.000000 0.000000 -7.081700 -10.762600 2.488900 17.082500 0.000000 0.000000 -16.520500 11.029400 1.082700 -3.079500 0.000000 -0.000000 
-4.320300 36.699402 -5.542200 -86.543602 3.273700 6.529400 1.494200 -1.735900 -0.338300 1.552200 0.008300 0.024400 4.697800 -1.602100 0.145800 -0.699900 -0.261600 0.154700 -6.531000 0.040400 -1.457200 -12.397700 1.735000 -4.493800 3.736500 -6.624400 2.881100 20.728300 -50.567699 24.917601 0.000000 0.000000 24.385599 -2.982200 -7.511700 -5.736900 -0.000000 0.000000 -0.000000 -0.000000 0.000000 0.000000 0.055500 9.574300 -5.073900 -1.703000 59.404202 4.953800 -0.000000 -0.000000 -31.957199 -4.208500 6.973800 13.095700 -0.000000 -0.000000 -0.000000 -0.000000 -0.000000 0.000000 -8.020100 3.039100 -18.461599 16.175100 0.000000 0.000000 -10.603500 -6.486400 -13.623400 1.166100 0.000000 0.000000 -6.880600 -10.383300 2.497400 17.175800 0.000000 0.000000 -16.628901 10.715700 1.276600 -3.123900 0.000000 -0.000000 
-4.189300 36.694901 -5.517600 -86.660202 3.097600 6.373900 1.461000 -1.550000 -0.316400 1.534600 0.033300 0.031300 4.659100 -1.523600 0.238500 -0.696300 -0.233500 0.163200 -6.483200 -0.032900 -1.438900 -12.295700 1.705500 -4.505900 3.754600 -6.688400 2.858200 20.933399 -50.673698 24.988001 0.000000 0.000000 24.270901 -3.024600 -7.421500 -5.801000 0.000000 0.000000 0.000000 -0.000000 0.000000 -0.000000 0.127400 9.672200 -5.010400 -0.697000 59.358299 4.131200 -0.000000 -0.000000 -32.187801 -4.248200 7.070800 12.891300 -0.000000 0.000000 -0.000000 -0.000000 -0.000000 -0.000000 -7.963300 3.445100 -18.324699 16.425400 0.000000 0.000000 -10.630500 -6.664500 -13.588200 1.067800 0.000000 0.000000 -6.671200 -9.988000 2.503000 17.258699 0.000000 0.000000 -16.731800 10.393300 1.476300 -3.171500 0.000000 -0.000000 
